<svg width="40" height="38" fill="none" xmlns="http://www.w3.org/2000/svg"><path d="M40 23.485V1.24c0-.647-.525-1.172-1.172-1.172H1.172C.525.068 0 .593 0 1.24v22.245h40zm-20.39-4.523c0 .647-.525 1.171-1.172 1.171H10.39a1.172 1.172 0 01-1.172-1.171v-5.654c0-.647.525-1.172 1.172-1.172h8.046c.648 0 1.172.525 1.172 1.172v5.654zm11.14 1.171h-7.625a1.172 1.172 0 010-2.343h7.626a1.172 1.172 0 010 2.343zm0-5.653h-7.625a1.172 1.172 0 010-2.344h7.626a1.172 1.172 0 010 2.344zm0-6.373H10.392a1.172 1.172 0 010-2.344h20.36a1.172 1.172 0 010 2.344zM15.438 33.532v2.057h-.337a1.172 1.172 0 000 2.343h9.798a1.172 1.172 0 000-2.343h-.337v-2.056h-9.124zm23.39-2.386c.647 0 1.172-.525 1.172-1.172v-4.146H0v4.146c0 .647.525 1.172 1.172 1.172h37.656z" fill="#fff"/><path d="M11.563 14.48h5.702v3.31h-5.702v-3.31z" fill="#fff"/></svg>