<svg width="40" height="40" fill="none" xmlns="http://www.w3.org/2000/svg"><path d="M23.976 2.58l-3.35 3.334 16.023 16.024L40 18.603 23.976 2.579zM20.48 9.083l-10.81 7.72-4.1 18.157a2.484 2.484 0 01-2.5-.61 2.46 2.46 0 01-.726-1.75c0-.662.258-1.284.725-1.752l1.796-1.796a4.826 4.826 0 000-6.817 7.08 7.08 0 010-10l-1.658-1.658c-3.67 3.671-3.67 9.645 0 13.316a2.479 2.479 0 010 3.502L1.413 29.19A4.789 4.789 0 000 32.6c0 1.287.501 2.497 1.412 3.408.91.91 2.12 1.412 3.408 1.412.888 0 2.02.043 2.76-.403l18.195-4.108 7.721-10.81L20.48 9.084zM22.594 23.3a2.343 2.343 0 01-2.264.607L8.229 36.008 6.57 34.35l12.102-12.102a2.345 2.345 0 113.922 1.051z" fill="#fff"/></svg>