<svg width="40" height="40" fill="none" xmlns="http://www.w3.org/2000/svg"><path d="M15.528 30.77c-2.615 0-4.615 2-4.615 4.615s2 4.615 4.615 4.615c2.616 0 4.616-2 4.616-4.615 0-2.616-2-4.616-4.615-4.616zm0 6.768c-1.23 0-2.153-.923-2.153-2.153 0-1.231.923-2.154 2.153-2.154 1.231 0 2.154.923 2.154 2.154 0 1.23-.923 2.154-2.153 2.154zm15.385-6.768c-2.615 0-4.615 2-4.615 4.615s2 4.615 4.615 4.615c2.616 0 4.616-2 4.616-4.615 0-2.616-2-4.616-4.616-4.616zm0 6.768c-1.23 0-2.154-.923-2.154-2.153 0-1.231.924-2.154 2.154-2.154 1.231 0 2.154.923 2.154 2.154 0 1.23-.923 2.154-2.154 2.154zM36.76 6.154H10.452L7.836 0H1.683v3.077h4.153l6.462 15.692a4.749 4.749 0 00-2.923 4.77c.308 2.461 2.461 4.153 4.77 4.153h21.384v-3.077H13.99c-.923 0-1.538-.615-1.538-1.538s.615-1.539 1.538-1.539h20.308c.77 0 1.385-.461 1.538-1.23L38.299 8c.154-.923-.615-1.846-1.538-1.846z" fill="#fff"/></svg>