<svg width="40" height="40" fill="none" xmlns="http://www.w3.org/2000/svg"><g clip-path="url(#clip0_1_146)" fill="#fff"><path d="M25.274 15.475a1.173 1.173 0 00-1.758 1.014v5.19L20 24.317l-3.516-2.636V16.49c0-.902-.979-1.466-1.758-1.014a10.585 10.585 0 00-5.273 9.134c0 3.523 1.78 6.823 4.688 8.77v5.449c0 .647.524 1.172 1.171 1.172h9.376c.647 0 1.171-.525 1.171-1.172V33.38a10.587 10.587 0 004.688-8.77c0-3.753-2.02-7.253-5.273-9.134zM36.484 0H3.516A3.52 3.52 0 000 3.516v5.859h40v-5.86A3.52 3.52 0 0036.484 0zM5.937 7.031a1.172 1.172 0 110-2.344 1.172 1.172 0 010 2.344zm4.688 0a1.172 1.172 0 110-2.344 1.172 1.172 0 010 2.344zm4.688 0a1.172 1.172 0 110-2.344 1.172 1.172 0 010 2.344zm18.75 0H27.03a1.172 1.172 0 010-2.343h7.032a1.172 1.172 0 010 2.343z"/><path d="M0 33.984A3.52 3.52 0 003.516 37.5h8.28v-2.947a12.873 12.873 0 01-4.687-9.944c0-4.587 2.47-8.864 6.443-11.163a3.516 3.516 0 015.276 3.043v4.019l1.172.879 1.172-.88V16.49a3.517 3.517 0 015.276-3.043 12.936 12.936 0 016.443 11.163c0 3.875-1.731 7.505-4.688 9.944V37.5h8.281A3.52 3.52 0 0040 33.984V11.72H0v22.265z"/></g><defs><clipPath id="clip0_1_146"><path fill="#fff" d="M0 0h40v40H0z"/></clipPath></defs></svg>