<svg width="40" height="40" fill="none" xmlns="http://www.w3.org/2000/svg"><g clip-path="url(#clip0_1_158)" fill="#fff"><path d="M17.594 15.387c.123-.466.426-.864.844-1.104l5.735-3.313a1.812 1.812 0 012.477.672l1.778 3.088c1.363-.2 2.748-.2 4.11 0l1.782-3.092a1.812 1.812 0 012.47-.671l.054.031A10.628 10.628 0 0034.03 5.97c-.156-.155-.322-.294-.484-.437l-4.425 4.485a1.825 1.825 0 01-2.569.011l-2.537-2.505a14.345 14.345 0 01-3.959 1.094l-.896 3.449a1.81 1.81 0 01-2.203 1.304l-1.178-.34a10.668 10.668 0 002.984 7.947c.246-.389.512-.764.796-1.126l-1.78-3.09a1.801 1.801 0 01-.185-1.375z"/><path d="M26.436.023c-7.06-.004-12.942 5.411-13.518 12.448-.577 7.036 4.343 13.337 11.31 14.483.008-.001.015-.006.024-.007a.706.706 0 01.344.063c3.13.46 6.321-.221 8.99-1.92.015-.013.035-.02.051-.03A13.55 13.55 0 0026.436.022zm8.603 22.1c-4.557 4.555-11.881 4.75-16.673.442-.005-.005-.012-.009-.016-.014-.158-.142-.322-.276-.474-.428a12.112 12.112 0 01-3.431-10.17c.003-.017 0-.033.004-.05l.004-.008A12.102 12.102 0 0133.87 3.947a.68.68 0 01.102.075 12.079 12.079 0 011.066 18.101z"/><path d="M25.293 24.177c2.74.3 5.49-.469 7.676-2.146a6.056 6.056 0 00-7.676 2.146zm-7.69-12.23a.377.377 0 00.173-.234l1.022-3.931a.715.715 0 01.627-.532 12.841 12.841 0 004.432-1.224.716.716 0 01.81.135l2.892 2.856a.387.387 0 00.553-.008l4.303-4.362a10.694 10.694 0 00-16.478 6.944l1.395.403a.37.37 0 00.27-.047zm11.688 19.486a4.288 4.288 0 004.284-4.283c0-.123-.019-.246-.03-.37a14.898 14.898 0 01-7.11 1.798c-.402 0-.798-.03-1.193-.06a4.253 4.253 0 004.05 2.915z"/><path d="M37.126 12.807l-1.045-.6a.385.385 0 00-.293-.037.37.37 0 00-.228.177l-2.03 3.523a.716.716 0 01-.747.347 12.784 12.784 0 00-4.6 0 .72.72 0 01-.745-.347l-2.028-3.519a.377.377 0 00-.231-.181.387.387 0 00-.296.039l-5.729 3.31a.386.386 0 00-.14.529l2.03 3.521a.712.712 0 01-.079.823c-.414.49-.789 1.014-1.12 1.564a10.615 10.615 0 003.946 1.943 7.493 7.493 0 0110.324-2.879 10.675 10.675 0 003.011-8.213zM7.78 28.181l-5.552 5.552 4.039 4.039 5.552-5.553a.715.715 0 000-1.01L8.79 28.181a.731.731 0 00-1.01 0zm8.083-1.001a.71.71 0 001.002-.006l1.172-1.177a15.11 15.11 0 01-4.032-4.04l-1.178 1.179a.71.71 0 000 1.004l.55.552 2.48 2.479.006.01zm20.827 2.592c.1-.287.37-.48.675-.48h2.634v-4.283h-2.634a.712.712 0 01-.67-.468l-.015-.04a15.098 15.098 0 01-1.816 1.474 5.701 5.701 0 11-11.16 2.341 14.882 14.882 0 01-4.414-1.554l-.707.71v1.82h2.634c.304 0 .575.193.674.48.317.91.803 1.752 1.431 2.482.198.23.228.559.077.821l-1.314 2.277 3.708 2.145 1.309-2.28a.71.71 0 01.748-.345 8.05 8.05 0 002.883 0 .713.713 0 01.747.345l1.314 2.277 3.707-2.139-1.317-2.28a.713.713 0 01.076-.821 7.676 7.676 0 001.43-2.482zm-22.35-2.094l-1.972-1.977-.044-.044-2.02 2.019 1.01 1.01 1.01 1.01 2.017-2.018zM3.331 13.353a7.68 7.68 0 001.431 2.482c.198.23.228.559.077.82l-1.314 2.278 3.708 2.145 1.309-2.28a.71.71 0 01.747-.345 8.05 8.05 0 002.883 0 .651.651 0 01.098-.004 14.867 14.867 0 01-.559-2.096 5.71 5.71 0 11-.98-11.333 5.617 5.617 0 012.905.802 15.086 15.086 0 013.341-3.853L14.23.385l-1.31 2.28c-.15.261-.45.4-.747.345a8.048 8.048 0 00-2.883 0 .708.708 0 01-.747-.346L7.228.387 3.521 2.526l1.317 2.28a.714.714 0 01-.076.821 7.674 7.674 0 00-1.43 2.483.715.715 0 01-.675.48H.022v4.283h2.635c.304 0 .574.193.674.48zM3.238 39.79a.715.715 0 001.01 0l1.009-1.009-4.038-4.038-1.01 1.01a.713.713 0 000 1.009l3.029 3.029z"/><path d="M10.73 6.448a4.283 4.283 0 10.783 8.488 15.16 15.16 0 01-.069-1.35 14.876 14.876 0 011.505-6.502 4.198 4.198 0 00-2.218-.636z"/></g><defs><clipPath id="clip0_1_158"><path fill="#fff" d="M0 0h40v40H0z"/></clipPath></defs></svg>