<svg width="40" height="40" fill="none" xmlns="http://www.w3.org/2000/svg"><path d="M9.243 19.611a.655.655 0 01.614.693c-.051 1.203.322 2.169 1.11 2.864a3.5 3.5 0 00.57.409c-.112-.866-.157-2.282.536-3.169.414-.53 1.016-.799 1.79-.799h1.4a1.223 1.223 0 001.221-1.232v-7.233a1.215 1.215 0 00-1.22-1.222H3.726A1.219 1.219 0 002.5 11.145v7.232a1.226 1.226 0 001.224 1.232h5.483l.036.002zm5.25-2.267h-4.145a.39.39 0 110-.782h4.144a.39.39 0 110 .782zm0-2.032h-.895a.391.391 0 010-.78h.894a.39.39 0 010 .78zm-4.47-2.812h4.47a.39.39 0 110 .781h-4.47a.39.39 0 110-.781zm-5.525 0h3.575a.39.39 0 110 .781H4.498a.39.39 0 110-.781zm0 2.031h7.15a.391.391 0 010 .781h-7.15a.39.39 0 010-.78zm3.9 2.813h-3.9a.39.39 0 110-.782h3.9a.39.39 0 110 .782z" fill="#fff"/><path d="M17.266 11.144v7.233a2.005 2.005 0 01-2.002 2.014h-1.402c-.527 0-.91.163-1.172.497-.663.846-.412 2.632-.26 3.248a.389.389 0 01-.481.47 4.126 4.126 0 01-1.5-.853c-.652-.576-1.412-1.644-1.376-3.362H8.28v10.78h14.291l-2.914-1.833a.38.38 0 01-.131-.515 3.044 3.044 0 013.62-1.376L19.38 15.152a2.098 2.098 0 114.014-1.23l2.057 6.712a2.102 2.102 0 011.814-.922V6.64H8.28v2.5h6.983a1.996 1.996 0 012.002 2.003z" fill="#fff"/><path d="M21.573 28.148c-.455.124-.86.388-1.157.754l3.967 2.51a5.982 5.982 0 01-.168-.48l-.758-2.473-.166-.094a2.247 2.247 0 00-1.718-.216zm5.693-23.602a2.921 2.921 0 00-2.92-2.905H11.16a2.887 2.887 0 00-2.88 2.905V5.86h18.985V4.546zM10 4.531h-.156a.39.39 0 010-.781H10a.39.39 0 110 .781zm8.75 0h-7.188a.39.39 0 110-.781h7.188a.39.39 0 110 .781zm6.466 28.318l-1.408-.896H8.28v3.5a2.887 2.887 0 002.88 2.906h13.184a2.922 2.922 0 002.92-2.905v-.897a6.235 6.235 0 01-2.049-1.709zm-7.463 3.363a1.215 1.215 0 110-2.43 1.215 1.215 0 010 2.43zM35.308 20.51a1.316 1.316 0 00-2.518.771l.833 2.722a.391.391 0 11-.747.229l-1.166-3.81a1.317 1.317 0 00-2.518.772l1.166 3.809a.39.39 0 11-.747.229l-1.166-3.81a1.317 1.317 0 00-2.518.772l1.166 3.81a.39.39 0 11-.747.228l-3.7-12.08a1.315 1.315 0 00-2.097-.63 1.317 1.317 0 00-.42 1.4l4.833 15.781a5.307 5.307 0 006.62 3.516l2.177-.667a5.306 5.306 0 003.516-6.62l-1.967-6.421z" fill="#fff"/><path d="M17.753 34.563a.433.433 0 100 .866.433.433 0 000-.866z" fill="#fff"/></svg>