<svg width="1440" height="1141" fill="none" xmlns="http://www.w3.org/2000/svg"><path d="M1623 394c-102.13 196.764-342.78 558.248-488.3 430.077C989.171 695.905 834.93 981.287 776 1140" stroke="#FC3867"/><path d="M1488 259c-102.13 196.764-342.78 558.248-488.304 430.077C854.171 560.905 699.93 846.287 641 1005" stroke="#FC3867"/><path d="M1534 298c-102.13 196.764-342.78 558.248-488.3 430.077C900.171 599.905 745.93 885.287 687 1044" stroke="#FC3867"/><path d="M1571 348c-102.13 196.764-342.78 558.248-488.3 430.077C937.171 649.905 782.93 935.287 724 1094" stroke="#FC3867"/><g opacity=".3" stroke="#FC3867"><path d="M420-136C317.867 60.764 77.22 422.248-68.304 294.077-213.829 165.905-368.07 451.287-427 610"/><path d="M285-271C182.867-74.236-57.78 287.248-203.304 159.077-348.829 30.905-503.07 316.287-562 475"/><path d="M331-232C228.867-35.236-11.78 326.248-157.304 198.077-302.829 69.905-457.07 355.287-516 514"/><path d="M368-182C265.867 14.764 25.22 376.248-120.304 248.077-265.829 119.905-420.07 405.287-479 564"/></g></svg>