<svg width="35" height="38" fill="none" xmlns="http://www.w3.org/2000/svg"><path d="M17.84 9.04l1.18 2.76c.08.24.3.38.52.4l3 .28c.64.06.88.84.42 1.26l-2.26 1.98a.62.62 0 00-.2.62l.66 2.94c.14.62-.52 1.1-1.08.78l-2.58-1.54a.65.65 0 00-.66 0l-2.58 1.54c-.54.32-1.22-.16-1.08-.78l.66-2.94a.62.62 0 00-.2-.62l-2.26-1.98c-.48-.42-.22-1.2.42-1.26l3-.28c.24-.02.44-.16.54-.38l1.18-2.76c.24-.6 1.06-.6 1.32-.02z" stroke="#fff" stroke-width="2" stroke-miterlimit="10" stroke-linecap="round" stroke-linejoin="round"/><path d="M30.774 14.89c.052-7.512-5.995-13.643-13.506-13.694C9.757 1.144 3.626 7.19 3.574 14.702c-.052 7.511 5.995 13.642 13.507 13.694 7.51.051 13.641-5.996 13.693-13.507z" stroke="#fff" stroke-width="2" stroke-miterlimit="10" stroke-linecap="round" stroke-linejoin="round"/><path d="M15.32 28.26l-3.38 8.5-4.28-4.9-6.46.6 4.28-10.72M19 28.26l3.4 8.5 4.26-4.9 6.48.6-4.3-10.72" stroke="#fff" stroke-width="2" stroke-miterlimit="10" stroke-linecap="round" stroke-linejoin="round"/></svg>