<svg width="38" height="34" fill="none" xmlns="http://www.w3.org/2000/svg"><path d="M34.68 22.5v5.24c0 2.76-2.24 5-5 5H6.5c-2.76 0-5-2.24-5-5V6.5c0-2.76 2.24-5 5-5h23.18c2.76 0 5 2.24 5 5v5M25 17h1.48" stroke="#fff" stroke-width="2" stroke-miterlimit="10" stroke-linecap="round" stroke-linejoin="round"/><path d="M22.78 22h11.83c1.315 0 2.39-.945 2.39-2.1v-5.8c0-1.155-1.075-2.1-2.39-2.1H22.78C20.15 12 18 13.89 18 16.202v1.596C18 20.13 20.127 22 22.78 22z" stroke="#fff" stroke-width="2" stroke-miterlimit="10" stroke-linecap="round" stroke-linejoin="round"/></svg>