<svg width="123" height="19" fill="none" xmlns="http://www.w3.org/2000/svg"><path d="M.776 18V.96h11.448v2.904H4.088v4.392h6.768v2.688H4.088V18H.776zM21.1 8.208c-.976 0-1.848.192-2.616.576-.768.368-1.32.904-1.656 1.608V18h-3.216V5.424h2.952v2.688c.448-.864 1.016-1.544 1.704-2.04s1.416-.768 2.184-.816h.408c.096 0 .176.008.24.024v2.928zm7.462 10.032c-1.008 0-1.92-.168-2.736-.504a6.425 6.425 0 01-2.088-1.416 6.756 6.756 0 01-1.344-2.064 6.778 6.778 0 01-.456-2.472c0-1.2.264-2.296.792-3.288a6.197 6.197 0 012.304-2.376c1.008-.608 2.192-.912 3.552-.912 1.376 0 2.552.304 3.528.912a5.902 5.902 0 012.232 2.376c.528.976.792 2.032.792 3.168 0 .192-.008.392-.024.6-.016.192-.032.352-.048.48h-9.72c.064.64.248 1.2.552 1.68.32.48.72.848 1.2 1.104a3.59 3.59 0 001.584.36c.64 0 1.24-.152 1.8-.456.576-.32.968-.736 1.176-1.248l2.76.768a5.163 5.163 0 01-1.32 1.704 6.312 6.312 0 01-1.992 1.176c-.768.272-1.616.408-2.544.408zm-3.288-7.536h6.576c-.064-.64-.248-1.192-.552-1.656a2.936 2.936 0 00-1.152-1.104 3.204 3.204 0 00-1.608-.408c-.576 0-1.104.136-1.584.408a3.165 3.165 0 00-1.152 1.104c-.288.464-.464 1.016-.528 1.656zm17.655 7.536c-1.008 0-1.92-.168-2.736-.504a6.425 6.425 0 01-2.088-1.416 6.756 6.756 0 01-1.344-2.064 6.778 6.778 0 01-.456-2.472c0-1.2.264-2.296.792-3.288A6.197 6.197 0 0139.4 6.12c1.008-.608 2.192-.912 3.552-.912 1.376 0 2.552.304 3.528.912a5.902 5.902 0 012.232 2.376c.528.976.792 2.032.792 3.168 0 .192-.008.392-.024.6-.016.192-.032.352-.048.48h-9.72c.064.64.248 1.2.552 1.68.32.48.72.848 1.2 1.104a3.59 3.59 0 001.584.36c.64 0 1.24-.152 1.8-.456.576-.32.968-.736 1.176-1.248l2.76.768a5.163 5.163 0 01-1.32 1.704 6.312 6.312 0 01-1.992 1.176c-.768.272-1.616.408-2.544.408zm-3.288-7.536h6.576c-.064-.64-.248-1.192-.552-1.656a2.936 2.936 0 00-1.152-1.104 3.204 3.204 0 00-1.608-.408c-.576 0-1.104.136-1.584.408a3.165 3.165 0 00-1.152 1.104c-.288.464-.464 1.016-.528 1.656zM51.44.48h3.216v13.488c0 .576.096.968.288 1.176.192.192.456.288.792.288.256 0 .52-.032.792-.096s.512-.144.72-.24l.432 2.448a6.22 6.22 0 01-1.512.48 8.249 8.249 0 01-1.56.168c-1.008 0-1.792-.264-2.352-.792-.544-.544-.816-1.312-.816-2.304V.48zm6.777 13.8c0-.816.224-1.528.672-2.136.464-.624 1.104-1.104 1.92-1.44.816-.336 1.752-.504 2.808-.504.528 0 1.064.04 1.608.12a5.51 5.51 0 011.416.384v-.672c0-.8-.24-1.416-.72-1.848-.464-.432-1.16-.648-2.088-.648-.688 0-1.344.12-1.968.36-.624.24-1.28.592-1.968 1.056L58.865 6.84c.832-.544 1.68-.952 2.544-1.224.88-.272 1.8-.408 2.76-.408 1.792 0 3.184.448 4.176 1.344 1.008.896 1.512 2.176 1.512 3.84V14.4c0 .336.056.576.168.72.128.144.328.232.6.264V18c-.288.048-.552.088-.792.12a4.164 4.164 0 01-.576.048c-.64 0-1.128-.144-1.464-.432a1.86 1.86 0 01-.6-1.056l-.072-.648a5.498 5.498 0 01-2.04 1.632 5.805 5.805 0 01-2.496.576c-.832 0-1.584-.168-2.256-.504a4.17 4.17 0 01-1.56-1.416 3.863 3.863 0 01-.552-2.04zm7.824.648a3.38 3.38 0 00.432-.576c.112-.192.168-.368.168-.528v-1.272a5.96 5.96 0 00-1.248-.36 6.08 6.08 0 00-1.272-.144c-.832 0-1.52.184-2.064.552-.528.352-.792.824-.792 1.416 0 .32.088.624.264.912.176.288.432.52.768.696.336.176.736.264 1.2.264.48 0 .952-.088 1.416-.264.464-.192.84-.424 1.128-.696zM84.551 18h-3.217v-7.056c0-1.008-.176-1.744-.528-2.208-.352-.464-.84-.696-1.464-.696-.432 0-.872.112-1.32.336a4.049 4.049 0 00-1.176.936 3.513 3.513 0 00-.768 1.344V18h-3.216V5.424h2.904v2.328c.32-.544.728-1 1.224-1.368a5.19 5.19 0 011.704-.864 6.788 6.788 0 012.064-.312c.784 0 1.424.144 1.92.432.512.272.896.648 1.152 1.128.272.464.456.992.552 1.584.112.592.168 1.192.168 1.8V18zm8.652.24c-1.024 0-1.944-.168-2.76-.504a6.244 6.244 0 01-2.088-1.44 6.976 6.976 0 01-1.344-2.112 6.778 6.778 0 01-.456-2.472c0-1.184.264-2.264.792-3.24a6.197 6.197 0 012.304-2.376c.992-.592 2.168-.888 3.528-.888 1.36 0 2.528.296 3.504.888.976.592 1.704 1.368 2.184 2.328l-3.144.96a2.738 2.738 0 00-1.08-1.056 2.946 2.946 0 00-1.488-.384c-.608 0-1.168.16-1.68.48-.496.304-.888.744-1.176 1.32-.288.56-.432 1.216-.432 1.968 0 .736.144 1.392.432 1.968.304.56.704 1.008 1.2 1.344a2.99 2.99 0 001.656.48c.384 0 .744-.064 1.08-.192.352-.128.664-.304.936-.528.272-.224.472-.48.6-.768l3.144.96a5.085 5.085 0 01-1.272 1.68 6.075 6.075 0 01-1.944 1.176c-.736.272-1.568.408-2.496.408zm13.406 0c-1.008 0-1.92-.168-2.736-.504a6.425 6.425 0 01-2.088-1.416 6.756 6.756 0 01-1.344-2.064 6.778 6.778 0 01-.457-2.472c0-1.2.265-2.296.793-3.288a6.197 6.197 0 012.304-2.376c1.008-.608 2.192-.912 3.552-.912 1.376 0 2.552.304 3.528.912a5.902 5.902 0 012.232 2.376c.528.976.792 2.032.792 3.168 0 .192-.008.392-.024.6-.016.192-.032.352-.048.48h-9.72c.064.64.248 1.2.552 1.68.32.48.72.848 1.2 1.104a3.59 3.59 0 001.584.36c.64 0 1.24-.152 1.8-.456.576-.32.968-.736 1.176-1.248l2.76.768a5.163 5.163 0 01-1.32 1.704 6.312 6.312 0 01-1.992 1.176c-.768.272-1.616.408-2.544.408zm-3.288-7.536h6.576c-.064-.64-.248-1.192-.552-1.656a2.936 2.936 0 00-1.152-1.104 3.204 3.204 0 00-1.608-.408c-.576 0-1.104.136-1.584.408a3.165 3.165 0 00-1.152 1.104c-.288.464-.464 1.016-.528 1.656zm19.311-2.496c-.976 0-1.848.192-2.616.576-.768.368-1.32.904-1.656 1.608V18h-3.216V5.424h2.952v2.688c.448-.864 1.016-1.544 1.704-2.04s1.416-.768 2.184-.816h.408c.096 0 .176.008.24.024v2.928z" fill="#C4C4C4"/></svg>